<svg width="34" height="33" viewBox="0 0 34 33" fill="none" xmlns="http://www.w3.org/2000/svg">
<g id="Iconsax/Bold/facebook">
<path id="Vector" d="M30.5201 22.2613C30.5201 27.2663 27.5379 30.25 22.5355 30.25H20.9001C20.1443 30.25 19.5258 29.6313 19.5258 28.875V20.9412C19.5258 20.57 19.8282 20.2537 20.1992 20.2537L22.618 20.2125C22.8104 20.1987 22.9753 20.0613 23.0165 19.8687L23.4975 17.2425C23.5069 17.183 23.5032 17.1221 23.4868 17.0642C23.4703 17.0062 23.4415 16.9525 23.4023 16.9067C23.3631 16.861 23.3145 16.8243 23.2597 16.7992C23.205 16.7741 23.1455 16.7611 23.0852 16.7612L20.158 16.8025C19.7732 16.8025 19.4709 16.5 19.4571 16.1287L19.4022 12.76C19.4022 12.54 19.5808 12.3475 19.8144 12.3475L23.1127 12.2925C23.3464 12.2925 23.525 12.1138 23.525 11.88L23.47 8.58C23.47 8.34625 23.2914 8.1675 23.0578 8.1675L19.3472 8.2225C18.8055 8.23073 18.2708 8.34583 17.7737 8.56119C17.2766 8.77656 16.8268 9.08796 16.4502 9.47754C16.0736 9.86713 15.7775 10.3273 15.5789 10.8315C15.3804 11.3358 15.2832 11.8743 15.293 12.4162L15.3618 16.1975C15.3755 16.5825 15.0732 16.885 14.6884 16.8988L13.0392 16.9263C12.8056 16.9263 12.6269 17.105 12.6269 17.3387L12.6682 19.9513C12.6682 20.185 12.8468 20.3638 13.0804 20.3638L14.7296 20.3363C15.1144 20.3363 15.4167 20.6388 15.4305 21.01L15.5542 28.8475C15.5679 29.6175 14.9495 30.25 14.1799 30.25H11.019C6.01662 30.25 3.03442 27.2663 3.03442 22.2475V10.7387C3.03442 5.73375 6.01662 2.75 11.019 2.75H22.5355C27.5379 2.75 30.5201 5.73375 30.5201 10.7387V22.2613Z" fill="white"/>
</g>
</svg>
