<svg width="27" height="27" viewBox="0 0 27 27" fill="none" xmlns="http://www.w3.org/2000/svg">
<path d="M19.218 0.670279L6.80819 4.79528C-1.53372 7.58653 -1.53372 12.1378 6.80819 14.9153L10.4913 16.139L11.7144 19.824C14.4904 28.1703 19.0531 28.1703 21.8291 19.824L25.9657 7.42153C27.8073 1.85278 24.7838 -1.18597 19.218 0.670279ZM19.6578 8.06778L14.4355 13.3203C14.2293 13.5265 13.9682 13.6228 13.7071 13.6228C13.446 13.6228 13.1849 13.5265 12.9787 13.3203C12.787 13.1262 12.6795 12.8644 12.6795 12.5915C12.6795 12.3187 12.787 12.0568 12.9787 11.8628L18.201 6.61028C18.5996 6.21153 19.2592 6.21153 19.6578 6.61028C20.0563 7.00903 20.0563 7.66903 19.6578 8.06778Z" fill="black"/>
</svg>
