<svg width="34" height="33" viewBox="0 0 34 33" fill="none" xmlns="http://www.w3.org/2000/svg">
<g id="Iconsax/Bold/whatsapp">
<path id="Vector" d="M30.4613 15.6886C29.994 7.71364 22.7516 1.56739 14.4097 2.94239C8.66514 3.89114 4.06129 8.55239 3.168 14.2999C2.64577 17.6274 3.33292 20.7761 4.83089 23.3749L3.60777 27.9261C3.33292 28.9574 4.28117 29.8924 5.29814 29.6036L9.77831 28.3661C11.8123 29.5624 14.1898 30.2499 16.7322 30.2499C24.4832 30.2499 30.9148 23.4161 30.4613 15.6886ZM23.4524 21.6149C23.121 22.2951 22.5548 22.8323 21.8583 23.1274C21.446 23.3061 20.9925 23.3886 20.5115 23.3886C19.8106 23.3886 19.0547 23.2236 18.2714 22.8799C17.4365 22.5131 16.6439 22.0567 15.9076 21.5186C15.1105 20.9411 14.3684 20.2949 13.6538 19.5936C12.9392 18.8786 12.307 18.1224 11.7298 17.3386C11.1663 16.5549 10.7128 15.7711 10.383 14.9874C10.0532 14.2036 9.88826 13.4474 9.88826 12.7324C9.88826 12.2649 9.97071 11.8111 10.1356 11.3986C10.3005 10.9724 10.5617 10.5874 10.9327 10.2436C11.3725 9.80364 11.8535 9.59739 12.362 9.59739C12.5544 9.59739 12.7468 9.63864 12.9254 9.72114C13.1041 9.80364 13.269 9.92739 13.3927 10.1061L14.9869 12.3611C15.1105 12.5399 15.2067 12.6911 15.2617 12.8424C15.3304 12.9936 15.3579 13.1311 15.3579 13.2686C15.3579 13.4336 15.3029 13.5986 15.2067 13.7636C15.1105 13.9286 14.9869 14.0936 14.8219 14.2586L14.2997 14.8086C14.2173 14.8911 14.1898 14.9736 14.1898 15.0836C14.1898 15.1386 14.2035 15.1936 14.2173 15.2486C14.2447 15.3036 14.2585 15.3449 14.2722 15.3861C14.3959 15.6199 14.6158 15.9086 14.9181 16.2661C15.5616 17.0226 16.2647 17.7261 17.0208 18.3699C17.3781 18.6724 17.6805 18.8786 17.9141 19.0024C17.9553 19.0161 17.9965 19.0436 18.0378 19.0574C18.0927 19.0849 18.1477 19.0849 18.2164 19.0849C18.3401 19.0849 18.4226 19.0436 18.505 18.9611L19.0273 18.4386C19.2059 18.2599 19.3708 18.1361 19.522 18.0536C19.6869 17.9574 19.8381 17.9024 20.0167 17.9024C20.1542 17.9024 20.2916 17.9299 20.4428 17.9986C20.5939 18.0674 20.7589 18.1499 20.9238 18.2736L23.2051 19.8961C23.3837 20.0199 23.5074 20.1711 23.5899 20.3361C23.6586 20.5149 23.6998 20.6799 23.6998 20.8724C23.6174 21.1061 23.5624 21.3674 23.4524 21.6149Z" fill="white"/>
</g>
</svg>
